<svg xmlns="http://www.w3.org/2000/svg" width="256" height="256" viewBox="0 0 256 256">
  <defs>
    <radialGradient id="coreGlow" cx="50%" cy="50%" r="55%">
      <stop offset="0%" stop-color="#f7fbff" stop-opacity="0.98"/>
      <stop offset="42%" stop-color="#6ee7ff" stop-opacity="0.62"/>
      <stop offset="100%" stop-color="#0b1428" stop-opacity="0"/>
    </radialGradient>
    <linearGradient id="cyanHull" x1="20%" y1="5%" x2="80%" y2="95%">
      <stop offset="0%" stop-color="#e9fbff"/>
      <stop offset="45%" stop-color="#50d7ff"/>
      <stop offset="100%" stop-color="#11609a"/>
    </linearGradient>
    <linearGradient id="dangerHot" x1="15%" y1="10%" x2="85%" y2="90%">
      <stop offset="0%" stop-color="#ffd58a"/>
      <stop offset="45%" stop-color="#ff5b49"/>
      <stop offset="100%" stop-color="#6b1224"/>
    </linearGradient>
    <linearGradient id="eliteViolet" x1="15%" y1="5%" x2="85%" y2="95%">
      <stop offset="0%" stop-color="#fff1ff"/>
      <stop offset="35%" stop-color="#d36cff"/>
      <stop offset="100%" stop-color="#3d176e"/>
    </linearGradient>
    <filter id="softGlow" x="-60%" y="-60%" width="220%" height="220%">
      <feGaussianBlur stdDeviation="5" result="blur"/>
      <feMerge>
        <feMergeNode in="blur"/>
        <feMergeNode in="SourceGraphic"/>
      </feMerge>
    </filter>
    <pattern id="grid" width="24" height="24" patternUnits="userSpaceOnUse">
      <path d="M24 0H0V24" fill="none" stroke="#263654" stroke-width="1" opacity="0.32"/>
    </pattern>
  </defs>
  <rect width="100%" height="100%" rx="24" fill="#08111f"/>
  <rect width="100%" height="100%" rx="24" fill="url(#grid)"/>
  
  <circle cx="128" cy="128" r="96" fill="#6b1224" opacity="0.22" filter="url(#softGlow)"/>
  <path d="M128 26 L221 80 L221 176 L128 230 L35 176 L35 80 Z" fill="#100b14" stroke="#ffd08c" stroke-width="6" stroke-linejoin="round"/>
  <path d="M128 48 L196 88 L196 168 L128 208 L60 168 L60 88 Z" fill="#4a1725" stroke="#ff685a" stroke-width="5" stroke-linejoin="round"/>
  <circle cx="128" cy="128" r="43" fill="#080712" stroke="#ffe0a8" stroke-width="6"/>
  <circle cx="128" cy="128" r="24" fill="#ff493f"/>
  <circle cx="128" cy="128" r="11" fill="#fff5c7"/>
  <path d="M128 26 V75 M128 181 V230 M35 80 L79 106 M177 150 L221 176 M221 80 L177 106 M79 150 L35 176" stroke="#ffb15e" stroke-width="8" stroke-linecap="round"/>
  <path d="M25 128 H76 M180 128 H231" stroke="#ff493f" stroke-width="10" stroke-linecap="round" opacity="0.9"/>
  <path d="M96 97 L160 159 M160 97 L96 159" stroke="#ffd08c" stroke-width="5" stroke-linecap="round" opacity="0.75"/>
  <text x="18" y="224" fill="#dceaff" font-family="Consolas, monospace" font-size="13" font-weight="700">boss-bastion-main v1</text>
  <text x="18" y="241" fill="#88a4c6" font-family="Consolas, monospace" font-size="10">fortress boss / fireline source</text>
</svg>